<svg width="41" height="40" viewBox="0 0 41 40" fill="none" xmlns="http://www.w3.org/2000/svg">
<rect x="1.71436" y="1" width="38" height="38" rx="9" stroke="#FF3737" stroke-width="2"/>
<path d="M12.3811 35C11.4644 35 10.6797 34.6736 10.0269 34.0208C9.37416 33.3681 9.04777 32.5833 9.04777 31.6667V10H7.3811V6.66667H15.7144V5H25.7144V6.66667H34.0478V10H32.3811V31.6667C32.3811 32.5833 32.0547 33.3681 31.4019 34.0208C30.7492 34.6736 29.9644 35 29.0478 35H12.3811ZM29.0478 10H12.3811V31.6667H29.0478V10ZM15.7144 28.3333H19.0478V13.3333H15.7144V28.3333ZM22.3811 28.3333H25.7144V13.3333H22.3811V28.3333Z" fill="#FF3737"/>
</svg>
