<svg width="45" height="44" viewBox="0 0 45 44" fill="none" xmlns="http://www.w3.org/2000/svg">
<rect x="1.71436" y="1" width="42" height="42" rx="11" stroke="#3772FF" stroke-width="2"/>
<path d="M11.0477 33.6667H13.4227L29.7144 17.375L27.3394 15L11.0477 31.2917V33.6667ZM7.71436 37V29.9167L29.7144 7.95833C30.0477 7.65278 30.4157 7.41667 30.8185 7.25C31.2213 7.08333 31.6449 7 32.0894 7C32.5338 7 32.9644 7.08333 33.381 7.25C33.7977 7.41667 34.1588 7.66667 34.4644 8L36.756 10.3333C37.0894 10.6389 37.3324 11 37.4852 11.4167C37.638 11.8333 37.7144 12.25 37.7144 12.6667C37.7144 13.1111 37.638 13.5347 37.4852 13.9375C37.3324 14.3403 37.0894 14.7083 36.756 15.0417L14.7977 37H7.71436ZM28.506 16.2083L27.3394 15L29.7144 17.375L28.506 16.2083Z" fill="#5C8DCC"/>
</svg>
