<svg width="238" height="150" viewBox="0 0 238 150" fill="none" xmlns="http://www.w3.org/2000/svg">
<rect width="238" height="150" fill="white"/>
<path d="M19.4665 60V13.4545H51.921V22.5909H30.7165V32.1364H50.2619V41.2955H30.7165V50.8636H51.921V60H19.4665ZM78.6347 60H66.5437L82.2483 13.4545H97.2256L112.93 60H100.839L89.9074 25.1818H89.5437L78.6347 60ZM77.021 41.6818H102.294V50.2273H77.021V41.6818ZM151.263 27.4091C151.112 25.7424 150.437 24.447 149.24 23.5227C148.059 22.5833 146.369 22.1136 144.172 22.1136C142.718 22.1136 141.505 22.303 140.536 22.6818C139.566 23.0606 138.839 23.5833 138.354 24.25C137.869 24.9015 137.619 25.6515 137.604 26.5C137.574 27.197 137.71 27.8106 138.013 28.3409C138.331 28.8712 138.786 29.3409 139.377 29.75C139.983 30.1439 140.71 30.4924 141.559 30.7955C142.407 31.0985 143.362 31.3636 144.422 31.5909L148.422 32.5C150.725 33 152.755 33.6667 154.513 34.5C156.286 35.3333 157.771 36.3258 158.968 37.4773C160.18 38.6288 161.096 39.9545 161.718 41.4545C162.339 42.9545 162.657 44.6364 162.672 46.5C162.657 49.4394 161.915 51.9621 160.445 54.0682C158.975 56.1742 156.862 57.7879 154.104 58.9091C151.362 60.0303 148.051 60.5909 144.172 60.5909C140.278 60.5909 136.884 60.0076 133.99 58.8409C131.096 57.6742 128.846 55.9015 127.24 53.5227C125.634 51.1439 124.809 48.1364 124.763 44.5H135.536C135.627 46 136.028 47.25 136.74 48.25C137.452 49.25 138.43 50.0076 139.672 50.5227C140.93 51.0379 142.384 51.2955 144.036 51.2955C145.551 51.2955 146.839 51.0909 147.899 50.6818C148.975 50.2727 149.801 49.7045 150.377 48.9773C150.952 48.25 151.248 47.4167 151.263 46.4773C151.248 45.5985 150.975 44.8485 150.445 44.2273C149.915 43.5909 149.096 43.0455 147.99 42.5909C146.899 42.1212 145.505 41.6894 143.809 41.2955L138.945 40.1591C134.915 39.2348 131.74 37.7424 129.422 35.6818C127.104 33.6061 125.952 30.803 125.968 27.2727C125.952 24.3939 126.725 21.8712 128.286 19.7045C129.846 17.5379 132.005 15.8485 134.763 14.6364C137.521 13.4242 140.665 12.8182 144.195 12.8182C147.801 12.8182 150.93 13.4318 153.581 14.6591C156.248 15.8712 158.316 17.5758 159.786 19.7727C161.255 21.9697 162.005 24.5151 162.036 27.4091H151.263ZM175.636 13.4545H188.204L198.045 32.9318H198.454L208.295 13.4545H220.863L203.84 44.4545V60H192.659V44.4545L175.636 13.4545ZM25.3415 137V90.4545H36.5915V109.136H54.9324V90.4545H66.1597V137H54.9324V118.295H36.5915V137H25.3415ZM82.8165 137V90.4545H115.271V99.5909H94.0665V109.136H113.612V118.295H94.0665V127.864H115.271V137H82.8165ZM131.916 137V90.4545H143.166V127.864H162.53V137H131.916ZM177.954 137V90.4545H197.181C200.666 90.4545 203.674 91.1364 206.204 92.5C208.749 93.8485 210.712 95.7348 212.09 98.1591C213.469 100.568 214.159 103.371 214.159 106.568C214.159 109.78 213.454 112.591 212.045 115C210.651 117.394 208.659 119.25 206.068 120.568C203.477 121.886 200.401 122.545 196.84 122.545H184.977V113.682H194.749C196.446 113.682 197.863 113.386 198.999 112.795C200.151 112.205 201.022 111.379 201.613 110.318C202.204 109.242 202.499 107.992 202.499 106.568C202.499 105.129 202.204 103.886 201.613 102.841C201.022 101.78 200.151 100.962 198.999 100.386C197.848 99.8106 196.431 99.5227 194.749 99.5227H189.204V137H177.954Z" fill="#2B5E89"/>
</svg>
